<svg width="16" height="16" viewBox="0 0 16 16" fill="none" xmlns="http://www.w3.org/2000/svg">
<g clip-path="url(#clip0)">
<g clip-path="url(#clip1)">
<rect width="16" height="16" transform="translate(0.00012207)" fill="url(#paint0_linear)"/>
<path d="M10.6026 5.37966C10.9204 5.6974 10.9204 6.21255 10.6026 6.53028L6.53457 10.5984C6.21684 10.9161 5.70168 10.9161 5.38395 10.5984C5.06621 10.2806 5.06621 9.76547 5.38395 9.44773L9.45202 5.37966C9.76975 5.06192 10.2849 5.06192 10.6026 5.37966Z" fill="white" fill-opacity="0.6"/>
<path d="M4.73891 5.88492V10.0926L5.38402 9.44748C5.70175 9.12974 6.21691 9.12974 6.53464 9.44748C6.85238 9.76521 6.85238 10.2804 6.53464 10.5981L5.19507 11.9377C4.42625 12.7065 3.11168 12.162 3.11168 11.0747V4.9028C3.11168 3.81552 4.42625 3.27101 5.19507 4.03983L11.2478 10.0926V5.88492L10.6027 6.53003C10.285 6.84776 9.76983 6.84776 9.45209 6.53003C9.13435 6.21229 9.13435 5.69714 9.45209 5.3794L10.7917 4.03983C11.5605 3.27101 12.8751 3.81552 12.8751 4.9028V11.0747C12.8751 12.162 11.5605 12.7065 10.7917 11.9377L4.73891 5.88492Z" fill="white"/>
</g>
</g>
<defs>
<linearGradient id="paint0_linear" x1="16" y1="20.0848" x2="-3.42141" y2="-0.921546" gradientUnits="userSpaceOnUse">
<stop stop-color="#008899"/>
<stop offset="1" stop-color="#66FF66"/>
</linearGradient>
<clipPath id="clip0">
<rect width="16" height="16" fill="white"/>
</clipPath>
<clipPath id="clip1">
<rect width="16" height="16" rx="3.65049" fill="white"/>
</clipPath>
</defs>
</svg>
